<?xml version="1.0" encoding="UTF-8" standalone="no"?>
<!-- Created with Inkscape (http://www.inkscape.org/) -->

<svg
   xmlns:dc="http://purl.org/dc/elements/1.1/"
   xmlns:cc="http://creativecommons.org/ns#"
   xmlns:rdf="http://www.w3.org/1999/02/22-rdf-syntax-ns#"
   xmlns:svg="http://www.w3.org/2000/svg"
   xmlns="http://www.w3.org/2000/svg"
   version="1.1"
   width="744.09448"
   height="1052.3622"
   id="svg7955">
  <desc
     id="desc7957">/Users/elchupa/code/personal/ErgoDox/ErgoDox Acrylic Case/ErgoDOX Acrylic Case - Designed by Litster/Standard/Right/ErgoDOX Case Layer 4 Spacer - Right.dxf - scale = 1.000000</desc>
  <metadata
     id="metadata8126">
    <rdf:RDF>
      <cc:Work
         rdf:about="">
        <dc:format>image/svg+xml</dc:format>
        <dc:type
           rdf:resource="http://purl.org/dc/dcmitype/StillImage" />
        <dc:title></dc:title>
      </cc:Work>
    </rdf:RDF>
  </metadata>
  <defs
     id="defs7959">
    <marker
       refX="0"
       refY="0"
       orient="auto"
       id="DistanceX"
       style="overflow:visible">
      <path
         d="M 3,-3 -3,3 M 0,-5 0,5"
         id="path7962"
         style="stroke:#000000;stroke-width:0.5" />
    </marker>
    <pattern
       y="0"
       x="0"
       width="8"
       patternUnits="userSpaceOnUse"
       id="Hatch"
       height="8">
      <path
         id="path7965"
         stroke-width="0.25"
         stroke="#000000"
         linecap="square"
         d="M8 4 l-4,4" />
      <path
         id="path7967"
         stroke-width="0.25"
         stroke="#000000"
         linecap="square"
         d="M6 2 l-4,4" />
      <path
         id="path7969"
         stroke-width="0.25"
         stroke="#000000"
         linecap="square"
         d="M4 0 l-4,4" />
    </pattern>
    <symbol
       id="*Model_Space" />
    <symbol
       id="*Paper_Space" />
    <symbol
       id="*Paper_Space0" />
  </defs>
  <g
     id="g7974">
    <path
       d="m 221.85,739.4322 -17.37,0"
       id="path7976"
       style="fill:none;stroke:#ff0000" />
    <path
       d="M 45.647864,806.10175 137.64766,1003.3976"
       id="path7978"
       style="fill:none;stroke:#ff0000" />
    <path
       d="M 204.48,739.4322 87.228,794.10721"
       id="path7980"
       style="fill:none;stroke:#ff0000" />
    <path
       d="M 87.228,794.10721 81.783,809.0562"
       id="path7982"
       style="fill:none;stroke:#ff0000" />
    <path
       d="M 170.60744,1015.3956 452.54122,883.95523"
       id="path7984"
       style="fill:none;stroke:#ff0000" />
    <path
       d="m 407.38996,406.8822 a 5.314961,5.314961 0 1 0 -10.62992,0 5.314961,5.314961 0 1 0 10.62992,0 z"
       id="path7986"
       style="fill:none;stroke:#ff0000" />
    <path
       d="m 463.02168,881.6322 273.30517,0"
       id="path7988"
       style="fill:none;stroke:#ff0000" />
    <path
       d="m 217.8823,413.32704 a 5.314961,5.314961 0 1 0 -10.62992,0 5.314961,5.314961 0 1 0 10.62992,0 z"
       id="path7990"
       style="fill:none;stroke:#ff0000" />
    <path
       d="M 761.13,415.93535 A 24.80315,24.80315 0 0 0 736.32685,391.1322"
       id="path7992"
       style="fill:none;stroke:#ff0000" />
    <path
       d="M 215.15315,391.1322 A 24.80315,24.80315 0 0 0 190.35,415.93535"
       id="path7994"
       style="fill:none;stroke:#ff0000" />
    <path
       d="M 736.32685,881.6322 A 24.80315,24.80315 0 0 0 761.13,856.82906"
       id="path7996"
       style="fill:none;stroke:#ff0000" />
    <path
       d="m 137.64766,1003.3976 a 24.80315,24.80315 0 0 0 32.95978,11.998"
       id="path7998"
       style="fill:none;stroke:#ff0000" />
    <path
       d="M 57.645657,773.13992 A 24.80315,24.80315 0 0 0 45.647864,806.10175"
       id="path8000"
       style="fill:none;stroke:#ff0000" />
    <path
       d="m 69.977712,794.35883 a 5.314961,5.314961 0 1 0 -10.629922,0 5.314961,5.314961 0 1 0 10.629922,0 z"
       id="path8002"
       style="fill:none;stroke:#ff0000" />
    <path
       d="M 176.02838,717.94187 A 24.80315,24.80315 0 0 0 190.35,695.46224"
       id="path8004"
       style="fill:none;stroke:#ff0000" />
    <path
       d="m 463.02168,881.6322 a 24.80315,24.80315 0 0 0 -10.48046,2.32303"
       id="path8006"
       style="fill:none;stroke:#ff0000" />
    <path
       d="m 164.18163,996.38431 a 5.314961,5.314961 0 1 0 -10.62993,0 5.314961,5.314961 0 1 0 10.62993,0 z"
       id="path8008"
       style="fill:none;stroke:#ff0000" />
    <path
       d="m 81.783,809.0562 76.833,164.77201"
       id="path8010"
       style="fill:none;stroke:#ff0000" />
    <path
       d="m 459.34696,865.8822 a 5.314961,5.314961 0 1 0 -10.62992,0 5.314961,5.314961 0 1 0 10.62992,0 z"
       id="path8012"
       style="fill:none;stroke:#ff0000" />
    <path
       d="m 158.616,973.82821 14.949,5.43599"
       id="path8014"
       style="fill:none;stroke:#ff0000" />
    <path
       d="M 173.565,979.2642 450.54,850.1322"
       id="path8016"
       style="fill:none;stroke:#ff0000" />
    <path
       d="m 744.25012,853.81237 a 5.314961,5.314961 0 1 0 -10.62992,0 5.314961,5.314961 0 1 0 10.62992,0 z"
       id="path8018"
       style="fill:none;stroke:#ff0000" />
    <path
       d="m 293.08004,409.24921 26.01992,0"
       id="path8020"
       style="fill:none;stroke:#ff0000" />
    <path
       d="M 319.09996,409.24921 368.28,391.1322"
       id="path8022"
       style="fill:none;stroke:#ff0000" />
    <path
       d="m 243.9,391.1322 49.18004,18.11701"
       id="path8024"
       style="fill:none;stroke:#ff0000" />
    <path
       d="m 336.78,416.3322 -60.84,0"
       id="path8026"
       style="fill:none;stroke:#ff0000" />
    <path
       d="m 275.94,416.3322 0,6.3"
       id="path8028"
       style="fill:none;stroke:#ff0000" />
    <path
       d="m 243.9,391.1322 -28.74685,0"
       id="path8030"
       style="fill:none;stroke:#ff0000" />
    <path
       d="m 508.14,422.6322 0,-6.3"
       id="path8032"
       style="fill:none;stroke:#ff0000" />
    <path
       d="m 190.35,415.93535 0,279.52689"
       id="path8034"
       style="fill:none;stroke:#ff0000" />
    <path
       d="m 508.14,416.3322 -40.77,0"
       id="path8036"
       style="fill:none;stroke:#ff0000" />
    <path
       d="m 467.37,416.3322 0,6.3"
       id="path8038"
       style="fill:none;stroke:#ff0000" />
    <path
       d="m 761.13,856.82906 0,-440.89371"
       id="path8040"
       style="fill:none;stroke:#ff0000" />
    <path
       d="m 736.32685,391.1322 -196.68763,0"
       id="path8042"
       style="fill:none;stroke:#ff0000" />
    <path
       d="m 450.54,850.1322 245.34,0"
       id="path8044"
       style="fill:none;stroke:#ff0000" />
    <path
       d="m 695.88,850.1322 33.75,-33.75"
       id="path8046"
       style="fill:none;stroke:#ff0000" />
    <path
       d="m 729.63,816.3822 0,-382.5"
       id="path8048"
       style="fill:none;stroke:#ff0000" />
    <path
       d="m 729.63,433.8822 -11.25,-11.25"
       id="path8050"
       style="fill:none;stroke:#ff0000" />
    <path
       d="m 718.38,422.6322 -210.24,0"
       id="path8052"
       style="fill:none;stroke:#ff0000" />
    <path
       d="m 336.78,422.6322 0,-6.3"
       id="path8054"
       style="fill:none;stroke:#ff0000" />
    <path
       d="m 467.37,422.6322 -130.59,0"
       id="path8056"
       style="fill:none;stroke:#ff0000" />
    <path
       d="m 275.94,422.6322 -42.75,0"
       id="path8058"
       style="fill:none;stroke:#ff0000" />
    <path
       d="m 233.19,422.6322 -11.34,11.25"
       id="path8060"
       style="fill:none;stroke:#ff0000" />
    <path
       d="M 176.02838,717.94187 57.645657,773.13992"
       id="path8062"
       style="fill:none;stroke:#ff0000" />
    <path
       d="m 221.85,433.8822 0,305.55"
       id="path8064"
       style="fill:none;stroke:#ff0000" />
    <path
       d="m 744.25012,413.32704 a 5.314961,5.314961 0 1 0 -10.62992,0 5.314961,5.314961 0 1 0 10.62992,0 z"
       id="path8066"
       style="fill:none;stroke:#ff0000" />
    <path
       d="m 468.75088,409.24886 37.91792,0"
       id="path8068"
       style="fill:none;stroke:#ff0000" />
    <path
       d="m 506.6688,409.24886 32.97104,-18.117"
       id="path8070"
       style="fill:none;stroke:#ff0000" />
    <path
       d="m 435.86984,391.13186 32.97104,18.117"
       id="path8072"
       style="fill:none;stroke:#ff0000" />
    <path
       d="m 368.28,391.1322 67.58984,-3.4e-4"
       id="path8074"
       style="fill:none;stroke:#ff0000" />
  </g>
  <g
     id="g8076" />
  <g
     id="g8078" />
  <g
     id="g8080" />
  <g
     id="g8082" />
  <g
     id="g8084" />
  <g
     id="g8086" />
  <g
     id="g8088" />
  <g
     id="g8090" />
  <g
     id="g8092" />
  <g
     id="g8094" />
  <g
     id="g8096" />
  <g
     id="g8098" />
  <g
     id="g8100" />
  <g
     id="g8102" />
  <g
     id="g8104" />
  <g
     id="g8106" />
  <g
     id="g8108" />
  <g
     id="g8110" />
  <g
     id="g8112" />
  <g
     id="g8114" />
  <g
     id="g8116" />
  <g
     id="g8118" />
  <g
     id="g8120" />
  <g
     id="g8122" />
</svg>
