<?xml version="1.0" encoding="UTF-8" standalone="no"?>
<!-- Created with Inkscape (http://www.inkscape.org/) -->

<svg
   xmlns:dc="http://purl.org/dc/elements/1.1/"
   xmlns:cc="http://creativecommons.org/ns#"
   xmlns:rdf="http://www.w3.org/1999/02/22-rdf-syntax-ns#"
   xmlns:svg="http://www.w3.org/2000/svg"
   xmlns="http://www.w3.org/2000/svg"
   version="1.1"
   width="744.09448"
   height="1052.3622"
   id="svg8166">
  <desc
     id="desc8168">/Users/elchupa/code/personal/ErgoDox/ErgoDox Acrylic Case/ErgoDOX Acrylic Case - Designed by Litster/Standard/Right/ErgoDOX Case Layer 5 Bottom - Right.dxf - scale = 1.000000</desc>
  <metadata
     id="metadata8287">
    <rdf:RDF>
      <cc:Work
         rdf:about="">
        <dc:format>image/svg+xml</dc:format>
        <dc:type
           rdf:resource="http://purl.org/dc/dcmitype/StillImage" />
        <dc:title></dc:title>
      </cc:Work>
    </rdf:RDF>
  </metadata>
  <defs
     id="defs8170">
    <marker
       refX="0"
       refY="0"
       orient="auto"
       id="DistanceX"
       style="overflow:visible">
      <path
         d="M 3,-3 -3,3 M 0,-5 0,5"
         id="path8173"
         style="stroke:#000000;stroke-width:0.5" />
    </marker>
    <pattern
       y="0"
       x="0"
       width="8"
       patternUnits="userSpaceOnUse"
       id="Hatch"
       height="8">
      <path
         id="path8176"
         stroke-width="0.25"
         stroke="#000000"
         linecap="square"
         d="M8 4 l-4,4" />
      <path
         id="path8178"
         stroke-width="0.25"
         stroke="#000000"
         linecap="square"
         d="M6 2 l-4,4" />
      <path
         id="path8180"
         stroke-width="0.25"
         stroke="#000000"
         linecap="square"
         d="M4 0 l-4,4" />
    </pattern>
    <symbol
       id="*Model_Space" />
    <symbol
       id="*Paper_Space" />
    <symbol
       id="*Paper_Space0" />
  </defs>
  <g
     id="g8185">
    <path
       d="M 45.647864,806.10175 137.64766,1003.3976"
       id="path8187"
       style="fill:none;stroke:#ff0000" />
    <path
       d="M 170.60744,1015.3956 452.54122,883.95523"
       id="path8189"
       style="fill:none;stroke:#ff0000" />
    <path
       d="m 744.25012,413.32704 a 5.314961,5.314961 0 1 0 -10.62992,0 5.314961,5.314961 0 1 0 10.62992,0 z"
       id="path8191"
       style="fill:none;stroke:#ff0000" />
    <path
       d="m 407.38996,406.8822 a 5.314961,5.314961 0 1 0 -10.62992,0 5.314961,5.314961 0 1 0 10.62992,0 z"
       id="path8193"
       style="fill:none;stroke:#ff0000" />
    <path
       d="m 463.02168,881.6322 273.30517,0"
       id="path8195"
       style="fill:none;stroke:#ff0000" />
    <path
       d="m 217.8823,413.32704 a 5.314961,5.314961 0 1 0 -10.62992,0 5.314961,5.314961 0 1 0 10.62992,0 z"
       id="path8197"
       style="fill:none;stroke:#ff0000" />
    <path
       d="M 761.13,415.93535 A 24.80315,24.80315 0 0 0 736.32685,391.1322"
       id="path8199"
       style="fill:none;stroke:#ff0000" />
    <path
       d="M 215.15315,391.1322 A 24.80315,24.80315 0 0 0 190.35,415.93535"
       id="path8201"
       style="fill:none;stroke:#ff0000" />
    <path
       d="M 736.32685,881.6322 A 24.80315,24.80315 0 0 0 761.13,856.82906"
       id="path8203"
       style="fill:none;stroke:#ff0000" />
    <path
       d="m 137.64766,1003.3976 a 24.80315,24.80315 0 0 0 32.95978,11.998"
       id="path8205"
       style="fill:none;stroke:#ff0000" />
    <path
       d="M 57.645657,773.13992 A 24.80315,24.80315 0 0 0 45.647864,806.10175"
       id="path8207"
       style="fill:none;stroke:#ff0000" />
    <path
       d="m 69.977712,794.35883 a 5.314961,5.314961 0 1 0 -10.629922,0 5.314961,5.314961 0 1 0 10.629922,0 z"
       id="path8209"
       style="fill:none;stroke:#ff0000" />
    <path
       d="M 176.02838,717.94187 A 24.80315,24.80315 0 0 0 190.35,695.46224"
       id="path8211"
       style="fill:none;stroke:#ff0000" />
    <path
       d="m 463.02168,881.6322 a 24.80315,24.80315 0 0 0 -10.48046,2.32303"
       id="path8213"
       style="fill:none;stroke:#ff0000" />
    <path
       d="m 164.18163,996.38431 a 5.314961,5.314961 0 1 0 -10.62993,0 5.314961,5.314961 0 1 0 10.62993,0 z"
       id="path8215"
       style="fill:none;stroke:#ff0000" />
    <path
       d="m 459.34696,865.8822 a 5.314961,5.314961 0 1 0 -10.62992,0 5.314961,5.314961 0 1 0 10.62992,0 z"
       id="path8217"
       style="fill:none;stroke:#ff0000" />
    <path
       d="m 744.25012,853.81237 a 5.314961,5.314961 0 1 0 -10.62992,0 5.314961,5.314961 0 1 0 10.62992,0 z"
       id="path8219"
       style="fill:none;stroke:#ff0000" />
    <path
       d="m 137.50795,985.33772 0,0"
       id="path8221"
       style="fill:none;stroke:#ff0000" />
    <path
       d="m 190.35,415.93535 0,279.52689"
       id="path8223"
       style="fill:none;stroke:#ff0000" />
    <path
       d="m 761.13,856.82906 0,-440.89371"
       id="path8225"
       style="fill:none;stroke:#ff0000" />
    <path
       d="m 736.32685,391.1322 -521.1737,0"
       id="path8227"
       style="fill:none;stroke:#ff0000" />
    <path
       d="M 176.02838,717.94187 57.645657,773.13992"
       id="path8229"
       style="fill:none;stroke:#ff0000" />
    <path
       d="m 288.77953,485.43307 a 5.314961,5.314961 0 1 0 -10.62992,0 5.314961,5.314961 0 1 0 10.62992,0 z"
       id="path8231"
       style="fill:none;stroke:#ff0000" />
    <path
       d="m 678.54331,485.43307 a 5.314961,5.314961 0 1 0 -10.62992,0 5.314961,5.314961 0 1 0 10.62992,0 z"
       id="path8233"
       style="fill:none;stroke:#ff0000" />
    <path
       d="m 182.48031,910.62992 a 5.314961,5.314961 0 1 0 -10.62992,0 5.314961,5.314961 0 1 0 10.62992,0 z"
       id="path8235"
       style="fill:none;stroke:#ff0000" />
  </g>
  <g
     id="g8237" />
  <g
     id="g8239" />
  <g
     id="g8241" />
  <g
     id="g8243" />
  <g
     id="g8245" />
  <g
     id="g8247" />
  <g
     id="g8249" />
  <g
     id="g8251" />
  <g
     id="g8253" />
  <g
     id="g8255" />
  <g
     id="g8257" />
  <g
     id="g8259" />
  <g
     id="g8261" />
  <g
     id="g8263" />
  <g
     id="g8265" />
  <g
     id="g8267" />
  <g
     id="g8269" />
  <g
     id="g8271" />
  <g
     id="g8273" />
  <g
     id="g8275" />
  <g
     id="g8277" />
  <g
     id="g8279" />
  <g
     id="g8281" />
  <g
     id="g8283" />
</svg>
