<?xml version="1.0" encoding="UTF-8" standalone="no"?>
<!-- Created with Inkscape (http://www.inkscape.org/) -->

<svg
   xmlns:dc="http://purl.org/dc/elements/1.1/"
   xmlns:cc="http://creativecommons.org/ns#"
   xmlns:rdf="http://www.w3.org/1999/02/22-rdf-syntax-ns#"
   xmlns:svg="http://www.w3.org/2000/svg"
   xmlns="http://www.w3.org/2000/svg"
   version="1.1"
   width="744.09448"
   height="1052.3622"
   id="svg5738">
  <desc
     id="desc5740">/Users/elchupa/code/personal/ErgoDox/ErgoDox Acrylic Case/ErgoDOX Acrylic Case - Designed by Litster/Standard/Left/ErgoDOX Case Layer 5 Bottom - Left.dxf - scale = 1.000000</desc>
  <metadata
     id="metadata5817">
    <rdf:RDF>
      <cc:Work
         rdf:about="">
        <dc:format>image/svg+xml</dc:format>
        <dc:type
           rdf:resource="http://purl.org/dc/dcmitype/StillImage" />
        <dc:title></dc:title>
      </cc:Work>
    </rdf:RDF>
  </metadata>
  <defs
     id="defs5742">
    <marker
       refX="0"
       refY="0"
       orient="auto"
       id="DistanceX"
       style="overflow:visible">
      <path
         d="M 3,-3 -3,3 M 0,-5 0,5"
         id="path5745"
         style="stroke:#000000;stroke-width:0.5" />
    </marker>
    <pattern
       y="0"
       x="0"
       width="8"
       patternUnits="userSpaceOnUse"
       id="Hatch"
       height="8">
      <path
         id="path5748"
         stroke-width="0.25"
         stroke="#000000"
         linecap="square"
         d="M8 4 l-4,4" />
      <path
         id="path5750"
         stroke-width="0.25"
         stroke="#000000"
         linecap="square"
         d="M6 2 l-4,4" />
      <path
         id="path5752"
         stroke-width="0.25"
         stroke="#000000"
         linecap="square"
         d="M4 0 l-4,4" />
    </pattern>
    <symbol
       id="*Model_Space" />
    <symbol
       id="*Paper_Space" />
    <symbol
       id="*Paper_Space0" />
  </defs>
  <g
     id="g5757">
    <path
       d="m 772.64835,804.69041 a 5.314961,5.314961 0 1 0 -10.62992,0 5.314961,5.314961 0 1 0 10.62992,0 z"
       id="path5759"
       style="fill:none;stroke:#ff0000" />
    <path
       d="m 383.2791,876.21378 a 5.314961,5.314961 0 1 0 -10.62992,0 5.314961,5.314961 0 1 0 10.62992,0 z"
       id="path5761"
       style="fill:none;stroke:#ff0000" />
    <path
       d="m 98.375939,864.14394 a 5.314961,5.314961 0 1 0 -10.629922,0 5.314961,5.314961 0 1 0 10.629922,0 z"
       id="path5763"
       style="fill:none;stroke:#ff0000" />
    <path
       d="m 641.64614,426.26693 0,279.52688"
       id="path5765"
       style="fill:none;stroke:#ff0000" />
    <path
       d="m 70.866142,867.16063 0,-440.8937"
       id="path5767"
       style="fill:none;stroke:#ff0000" />
    <path
       d="m 95.669291,401.46378 521.173699,0"
       id="path5769"
       style="fill:none;stroke:#ff0000" />
    <path
       d="M 655.96776,728.27344 774.35049,783.4715"
       id="path5771"
       style="fill:none;stroke:#ff0000" />
    <path
       d="m 786.34828,816.43332 -91.9998,197.29588"
       id="path5773"
       style="fill:none;stroke:#ff0000" />
    <path
       d="M 661.3887,1025.7271 379.45492,894.2868"
       id="path5775"
       style="fill:none;stroke:#ff0000" />
    <path
       d="m 98.37594,423.65862 a 5.314961,5.314961 0 1 0 -10.629922,0 5.314961,5.314961 0 1 0 10.629922,0 z"
       id="path5777"
       style="fill:none;stroke:#ff0000" />
    <path
       d="m 435.2361,417.21378 a 5.314961,5.314961 0 1 0 -10.62992,0 5.314961,5.314961 0 1 0 10.62992,0 z"
       id="path5779"
       style="fill:none;stroke:#ff0000" />
    <path
       d="m 368.97446,891.96378 -273.305169,0"
       id="path5781"
       style="fill:none;stroke:#ff0000" />
    <path
       d="m 624.74377,423.65862 a 5.314961,5.314961 0 1 0 -10.62993,0 5.314961,5.314961 0 1 0 10.62993,0 z"
       id="path5783"
       style="fill:none;stroke:#ff0000" />
    <path
       d="M 95.669291,401.46378 A 24.80315,24.80315 0 0 0 70.866142,426.26693"
       id="path5785"
       style="fill:none;stroke:#ff0000" />
    <path
       d="M 641.64614,426.26693 A 24.80315,24.80315 0 0 0 616.84299,401.46378"
       id="path5787"
       style="fill:none;stroke:#ff0000" />
    <path
       d="m 70.866142,867.16063 a 24.80315,24.80315 0 0 0 24.803149,24.80315"
       id="path5789"
       style="fill:none;stroke:#ff0000" />
    <path
       d="m 661.3887,1025.7271 a 24.80315,24.80315 0 0 0 32.95978,-11.9979"
       id="path5791"
       style="fill:none;stroke:#ff0000" />
    <path
       d="M 786.34828,816.43332 A 24.80315,24.80315 0 0 0 774.35049,783.4715"
       id="path5793"
       style="fill:none;stroke:#ff0000" />
    <path
       d="m 641.64614,705.79381 a 24.80315,24.80315 0 0 0 14.32162,22.47963"
       id="path5795"
       style="fill:none;stroke:#ff0000" />
    <path
       d="m 379.45492,894.2868 a 24.80315,24.80315 0 0 0 -10.48046,-2.32302"
       id="path5797"
       style="fill:none;stroke:#ff0000" />
    <path
       d="m 694.48819,995.66929 0,0"
       id="path5799"
       style="fill:none;stroke:#ff0000" />
    <path
       d="m 678.44444,1006.7159 a 5.314961,5.314961 0 1 0 -10.62992,0 5.314961,5.314961 0 1 0 10.62992,0 z"
       id="path5801"
       style="fill:none;stroke:#ff0000" />
    <path
       d="m 694.48819,995.66929 0,0"
       id="path5803"
       style="fill:none;stroke:#ff0000" />
    <path
       d="m 553.84654,495.76465 a 5.314961,5.314961 0 1 0 -10.62993,0 5.314961,5.314961 0 1 0 10.62993,0 z"
       id="path5805"
       style="fill:none;stroke:#ff0000" />
    <path
       d="m 164.08276,495.76465 a 5.314961,5.314961 0 1 0 -10.62993,0 5.314961,5.314961 0 1 0 10.62993,0 z"
       id="path5807"
       style="fill:none;stroke:#ff0000" />
    <path
       d="m 660.14575,920.9615 a 5.314961,5.314961 0 1 0 -10.62992,0 5.314961,5.314961 0 1 0 10.62992,0 z"
       id="path5809"
       style="fill:none;stroke:#ff0000" />
  </g>
  <g
     id="g5811" />
  <g
     id="g5813" />
</svg>
