<?xml version="1.0" encoding="UTF-8" standalone="no"?>
<!-- Created with Inkscape (http://www.inkscape.org/) -->

<svg
   xmlns:dc="http://purl.org/dc/elements/1.1/"
   xmlns:cc="http://creativecommons.org/ns#"
   xmlns:rdf="http://www.w3.org/1999/02/22-rdf-syntax-ns#"
   xmlns:svg="http://www.w3.org/2000/svg"
   xmlns="http://www.w3.org/2000/svg"
   version="1.1"
   width="744.09448"
   height="1052.3622"
   id="svg3246">
  <desc
     id="desc3248">/Users/elchupa/code/personal/ErgoDox/ErgoDox Acrylic Case/ErgoDOX Acrylic Case - Designed by Litster/Standard/Left/ErgoDOX Case Layer 1 Top - Left.dxf - scale = 1.000000</desc>
  <metadata
     id="metadata3423">
    <rdf:RDF>
      <cc:Work
         rdf:about="">
        <dc:format>image/svg+xml</dc:format>
        <dc:type
           rdf:resource="http://purl.org/dc/dcmitype/StillImage" />
        <dc:title></dc:title>
      </cc:Work>
    </rdf:RDF>
  </metadata>
  <defs
     id="defs3250">
    <marker
       refX="0"
       refY="0"
       orient="auto"
       id="DistanceX"
       style="overflow:visible">
      <path
         d="M 3,-3 -3,3 M 0,-5 0,5"
         id="path3253"
         style="stroke:#000000;stroke-width:0.5" />
    </marker>
    <pattern
       y="0"
       x="0"
       width="8"
       patternUnits="userSpaceOnUse"
       id="Hatch"
       height="8">
      <path
         id="path3256"
         stroke-width="0.25"
         stroke="#000000"
         linecap="square"
         d="M8 4 l-4,4" />
      <path
         id="path3258"
         stroke-width="0.25"
         stroke="#000000"
         linecap="square"
         d="M6 2 l-4,4" />
      <path
         id="path3260"
         stroke-width="0.25"
         stroke="#000000"
         linecap="square"
         d="M4 0 l-4,4" />
    </pattern>
    <symbol
       id="*Model_Space" />
    <symbol
       id="*Paper_Space" />
    <symbol
       id="*Paper_Space0" />
  </defs>
  <g
     id="g3265">
    <path
       d="m 641.64614,705.79381 a 24.80315,24.80315 0 0 0 14.32162,22.47963"
       id="path3267"
       style="fill:none;stroke:#ff0000;stroke-linecap:round" />
    <path
       d="m 105.90945,521.47846 a 3.543307,3.543307 0 0 0 -3.54331,3.5433"
       id="path3269"
       style="fill:none;stroke:#ff0000;stroke-linecap:round" />
    <path
       d="m 102.36614,789.73515 a 3.543307,3.543307 0 0 0 3.54331,3.54331"
       id="path3271"
       style="fill:none;stroke:#ff0000;stroke-linecap:round" />
    <path
       d="m 786.34828,816.43332 -91.9998,197.29588"
       id="path3273"
       style="fill:none;stroke:#ff0000;stroke-linecap:round" />
    <path
       d="M 661.3887,1025.7271 379.45492,894.2868"
       id="path3275"
       style="fill:none;stroke:#ff0000;stroke-linecap:round" />
    <path
       d="m 435.2361,417.21378 a 5.314961,5.314961 0 1 0 -10.62992,0 5.314961,5.314961 0 1 0 10.62992,0 z"
       id="path3277"
       style="fill:none;stroke:#ff0000;stroke-linecap:round" />
    <path
       d="m 368.97446,891.96378 -273.305169,0"
       id="path3279"
       style="fill:none;stroke:#ff0000;stroke-linecap:round" />
    <path
       d="m 624.74377,423.65862 a 5.314961,5.314961 0 1 0 -10.62993,0 5.314961,5.314961 0 1 0 10.62993,0 z"
       id="path3281"
       style="fill:none;stroke:#ff0000;stroke-linecap:round" />
    <path
       d="M 95.669291,401.46378 A 24.80315,24.80315 0 0 0 70.866142,426.26693"
       id="path3283"
       style="fill:none;stroke:#ff0000;stroke-linecap:round" />
    <path
       d="M 641.64614,426.26693 A 24.80315,24.80315 0 0 0 616.84299,401.46378"
       id="path3285"
       style="fill:none;stroke:#ff0000;stroke-linecap:round" />
    <path
       d="m 70.866142,867.16063 a 24.80315,24.80315 0 0 0 24.803149,24.80315"
       id="path3287"
       style="fill:none;stroke:#ff0000;stroke-linecap:round" />
    <path
       d="m 661.3887,1025.7271 a 24.80315,24.80315 0 0 0 32.95978,-11.9979"
       id="path3289"
       style="fill:none;stroke:#ff0000;stroke-linecap:round" />
    <path
       d="M 786.34828,816.43332 A 24.80315,24.80315 0 0 0 774.35049,783.4715"
       id="path3291"
       style="fill:none;stroke:#ff0000;stroke-linecap:round" />
    <path
       d="m 772.64835,804.69041 a 5.314961,5.314961 0 1 0 -10.62992,0 5.314961,5.314961 0 1 0 10.62992,0 z"
       id="path3293"
       style="fill:none;stroke:#ff0000;stroke-linecap:round" />
    <path
       d="m 379.45492,894.2868 a 24.80315,24.80315 0 0 0 -10.48046,-2.32302"
       id="path3295"
       style="fill:none;stroke:#ff0000;stroke-linecap:round" />
    <path
       d="m 678.44444,1006.7159 a 5.314961,5.314961 0 1 0 -10.62992,0 5.314961,5.314961 0 1 0 10.62992,0 z"
       id="path3297"
       style="fill:none;stroke:#ff0000;stroke-linecap:round" />
    <path
       d="m 383.2791,876.21378 a 5.314961,5.314961 0 1 0 -10.62992,0 5.314961,5.314961 0 1 0 10.62992,0 z"
       id="path3299"
       style="fill:none;stroke:#ff0000;stroke-linecap:round" />
    <path
       d="m 98.375939,864.14394 a 5.314961,5.314961 0 1 0 -10.629922,0 5.314961,5.314961 0 1 0 10.629922,0 z"
       id="path3301"
       style="fill:none;stroke:#ff0000;stroke-linecap:round" />
    <path
       d="m 641.64614,426.26693 0,279.52688"
       id="path3303"
       style="fill:none;stroke:#ff0000;stroke-linecap:round" />
    <path
       d="m 70.866142,867.16063 0,-440.8937"
       id="path3305"
       style="fill:none;stroke:#ff0000;stroke-linecap:round" />
    <path
       d="m 95.669291,401.46378 521.173699,0"
       id="path3307"
       style="fill:none;stroke:#ff0000;stroke-linecap:round" />
    <path
       d="m 102.36614,789.73515 0,-264.71339"
       id="path3309"
       style="fill:none;stroke:#ff0000;stroke-linecap:round" />
    <path
       d="M 655.96776,728.27344 774.35049,783.4715"
       id="path3311"
       style="fill:none;stroke:#ff0000;stroke-linecap:round" />
    <path
       d="m 610.10129,518.32846 0.0448,231.43532"
       id="path3313"
       style="fill:none;stroke:#ff0000;stroke-linecap:round" />
    <path
       d="m 98.37594,423.65862 a 5.314961,5.314961 0 1 0 -10.629922,0 5.314961,5.314961 0 1 0 10.629922,0 z"
       id="path3315"
       style="fill:none;stroke:#ff0000;stroke-linecap:round" />
    <path
       d="m 561.99948,786.52846 a 3.6,3.6 0 0 0 -1.52143,6.8627"
       id="path3317"
       style="fill:none;stroke:#ff0000;stroke-linecap:round" />
    <path
       d="m 560.47805,793.39116 37.06963,17.28586"
       id="path3319"
       style="fill:none;stroke:#ff0000;stroke-linecap:round" />
    <path
       d="m 597.54768,810.67702 a 5.4,5.4 0 0 0 7.1762,-2.61193"
       id="path3321"
       style="fill:none;stroke:#ff0000;stroke-linecap:round" />
    <path
       d="m 604.72388,808.06509 24.72317,-53.019"
       id="path3323"
       style="fill:none;stroke:#ff0000;stroke-linecap:round" />
    <path
       d="m 634.23118,753.3048 a 3.6,3.6 0 0 0 -4.78413,1.74129"
       id="path3325"
       style="fill:none;stroke:#ff0000;stroke-linecap:round" />
    <path
       d="m 634.23118,753.3048 117.45749,54.77133"
       id="path3327"
       style="fill:none;stroke:#ff0000;stroke-linecap:round" />
    <path
       d="m 753.42995,812.86027 a 3.6,3.6 0 0 0 -1.74128,-4.78414"
       id="path3329"
       style="fill:none;stroke:#ff0000;stroke-linecap:round" />
    <path
       d="M 753.42995,812.86027 670.1319,991.49353"
       id="path3331"
       style="fill:none;stroke:#ff0000;stroke-linecap:round" />
    <path
       d="m 665.34776,993.23481 a 3.6,3.6 0 0 0 4.78414,-1.74128"
       id="path3333"
       style="fill:none;stroke:#ff0000;stroke-linecap:round" />
    <path
       d="M 665.34776,993.23481 486.7145,909.93675"
       id="path3335"
       style="fill:none;stroke:#ff0000;stroke-linecap:round" />
    <path
       d="m 484.97321,905.15262 a 3.6,3.6 0 0 0 1.74129,4.78413"
       id="path3337"
       style="fill:none;stroke:#ff0000;stroke-linecap:round" />
    <path
       d="M 484.97321,905.15262 536.70633,794.21059"
       id="path3339"
       style="fill:none;stroke:#ff0000;stroke-linecap:round" />
    <path
       d="m 536.70633,794.21059 a 5.4,5.4 0 0 0 -4.89406,-7.68213"
       id="path3341"
       style="fill:none;stroke:#ff0000;stroke-linecap:round" />
    <path
       d="m 531.81227,786.52846 -51.31098,0"
       id="path3343"
       style="fill:none;stroke:#ff0000;stroke-linecap:round" />
    <path
       d="m 480.50129,786.52846 a 5.4,5.4 0 0 0 -5.4,5.4"
       id="path3345"
       style="fill:none;stroke:#ff0000;stroke-linecap:round" />
    <path
       d="m 475.10129,791.92846 0,54"
       id="path3347"
       style="fill:none;stroke:#ff0000;stroke-linecap:round" />
    <path
       d="m 471.50129,849.52846 a 3.6,3.6 0 0 0 3.6,-3.6"
       id="path3349"
       style="fill:none;stroke:#ff0000;stroke-linecap:round" />
    <path
       d="m 471.50129,849.52846 -62.75678,0"
       id="path3351"
       style="fill:none;stroke:#ff0000;stroke-linecap:round" />
    <path
       d="m 405.40722,847.27846 a 3.6,3.6 0 0 0 3.33729,2.25"
       id="path3353"
       style="fill:none;stroke:#ff0000;stroke-linecap:round" />
    <path
       d="m 405.40722,847.27846 a 5.4,5.4 0 0 0 -5.00593,-3.375"
       id="path3355"
       style="fill:none;stroke:#ff0000;stroke-linecap:round" />
    <path
       d="m 400.40129,843.90346 -54.9,0"
       id="path3357"
       style="fill:none;stroke:#ff0000;stroke-linecap:round" />
    <path
       d="m 345.50129,843.90346 a 5.4,5.4 0 0 0 -5.00594,3.375"
       id="path3359"
       style="fill:none;stroke:#ff0000;stroke-linecap:round" />
    <path
       d="m 337.15807,849.52846 a 3.6,3.6 0 0 0 3.33728,-2.25"
       id="path3361"
       style="fill:none;stroke:#ff0000;stroke-linecap:round" />
    <path
       d="m 337.15807,849.52846 -59.15678,0"
       id="path3363"
       style="fill:none;stroke:#ff0000;stroke-linecap:round" />
    <path
       d="m 278.00129,849.52846 a 5.4,5.4 0 0 0 -5.4,5.4"
       id="path3365"
       style="fill:none;stroke:#ff0000;stroke-linecap:round" />
    <path
       d="m 272.60129,854.92846 0,2.25"
       id="path3367"
       style="fill:none;stroke:#ff0000;stroke-linecap:round" />
    <path
       d="m 269.00129,860.77846 a 3.6,3.6 0 0 0 3.6,-3.6"
       id="path3369"
       style="fill:none;stroke:#ff0000;stroke-linecap:round" />
    <path
       d="m 269.00129,860.77846 -129.6,0"
       id="path3371"
       style="fill:none;stroke:#ff0000;stroke-linecap:round" />
    <path
       d="m 135.80129,857.17846 a 3.6,3.6 0 0 0 3.6,3.6"
       id="path3373"
       style="fill:none;stroke:#ff0000;stroke-linecap:round" />
    <path
       d="m 135.80129,857.17846 0,-58.5"
       id="path3375"
       style="fill:none;stroke:#ff0000;stroke-linecap:round" />
    <path
       d="m 135.80129,798.67846 a 5.4,5.4 0 0 0 -5.4,-5.4"
       id="path3377"
       style="fill:none;stroke:#ff0000;stroke-linecap:round" />
    <path
       d="m 130.40129,793.27846 -24.49184,0"
       id="path3379"
       style="fill:none;stroke:#ff0000;stroke-linecap:round" />
    <path
       d="m 105.90945,521.47846 159.49184,0"
       id="path3381"
       style="fill:none;stroke:#ff0000;stroke-linecap:round" />
    <path
       d="m 265.40129,521.47846 a 5.4,5.4 0 0 0 5.4,-5.4"
       id="path3383"
       style="fill:none;stroke:#ff0000;stroke-linecap:round" />
    <path
       d="m 270.80129,516.07846 0,-2.25"
       id="path3385"
       style="fill:none;stroke:#ff0000;stroke-linecap:round" />
    <path
       d="m 274.40129,510.22846 a 3.6,3.6 0 0 0 -3.6,3.6"
       id="path3387"
       style="fill:none;stroke:#ff0000;stroke-linecap:round" />
    <path
       d="m 274.40129,510.22846 58.5,0"
       id="path3389"
       style="fill:none;stroke:#ff0000;stroke-linecap:round" />
    <path
       d="m 332.90129,510.22846 a 5.4,5.4 0 0 0 5.00593,-3.375"
       id="path3391"
       style="fill:none;stroke:#ff0000;stroke-linecap:round" />
    <path
       d="m 341.24451,504.60346 a 3.6,3.6 0 0 0 -3.33729,2.25"
       id="path3393"
       style="fill:none;stroke:#ff0000;stroke-linecap:round" />
    <path
       d="m 341.24451,504.60346 63.41356,0"
       id="path3395"
       style="fill:none;stroke:#ff0000;stroke-linecap:round" />
    <path
       d="m 407.99535,506.85346 a 3.6,3.6 0 0 0 -3.33728,-2.25"
       id="path3397"
       style="fill:none;stroke:#ff0000;stroke-linecap:round" />
    <path
       d="m 407.99535,506.85346 a 5.4,5.4 0 0 0 5.00594,3.375"
       id="path3399"
       style="fill:none;stroke:#ff0000;stroke-linecap:round" />
    <path
       d="m 413.00129,510.22846 59.70577,0"
       id="path3401"
       style="fill:none;stroke:#ff0000;stroke-linecap:round" />
    <path
       d="m 475.82475,512.02846 a 3.6,3.6 0 0 0 -3.11769,-1.8"
       id="path3403"
       style="fill:none;stroke:#ff0000;stroke-linecap:round" />
    <path
       d="m 475.82475,512.02846 a 5.4,5.4 0 0 0 4.67654,2.7"
       id="path3405"
       style="fill:none;stroke:#ff0000;stroke-linecap:round" />
    <path
       d="m 480.50129,514.72846 126,0"
       id="path3407"
       style="fill:none;stroke:#ff0000;stroke-linecap:round" />
    <path
       d="m 610.10129,518.32846 a 3.6,3.6 0 0 0 -3.6,-3.6"
       id="path3409"
       style="fill:none;stroke:#ff0000;stroke-linecap:round" />
    <path
       d="m 610.10129,518.32846 0,264.6"
       id="path3411"
       style="fill:none;stroke:#ff0000;stroke-linecap:round" />
    <path
       d="m 606.50129,786.52846 a 3.6,3.6 0 0 0 3.6,-3.6"
       id="path3413"
       style="fill:none;stroke:#ff0000;stroke-linecap:round" />
    <path
       d="m 606.50129,786.52846 -44.50181,0"
       id="path3415"
       style="fill:none;stroke:#ff0000;stroke-linecap:round" />
  </g>
  <g
     id="g3417" />
  <g
     id="g3419" />
</svg>
